<?xml version="1.0" encoding="utf-8"?>
<!-- Generator: Adobe Illustrator 16.0.4, SVG Export Plug-In . SVG Version: 6.00 Build 0)  -->
<!DOCTYPE svg PUBLIC "-//W3C//DTD SVG 1.1//EN" "http://www.w3.org/Graphics/SVG/1.1/DTD/svg11.dtd">
<svg version="1.1" id="Layer_1" xmlns="http://www.w3.org/2000/svg" xmlns:xlink="http://www.w3.org/1999/xlink" x="0px" y="0px"
	 width="24.334px" height="21.333px" viewBox="0 0 24.334 21.333" enable-background="new 0 0 24.334 21.333" xml:space="preserve">
<path fill-rule="evenodd" clip-rule="evenodd" fill="#093858" d="M19.965,5.699c-0.658-0.771-1.652-1.11-2.799-0.992V4.023V3.372
	c0-1.077-0.875-1.954-1.953-1.954H7.398c-1.078,0-1.954,0.877-1.954,1.954v0.651v0.684c-1.147-0.118-2.143,0.221-2.8,0.992
	c-0.725,0.852-0.883,2.077-0.4,3.123c0.551,1.192,1.775,1.912,3.39,2.029c0.599,2.586,2.589,4.554,5.029,4.852
	c-0.001,0.016-0.009,0.028-0.009,0.043v2.605H9.351c-0.36,0-0.651,0.292-0.651,0.65c0,0.36,0.291,0.652,0.651,0.652h3.907
	c0.361,0,0.652-0.292,0.652-0.652c0-0.358-0.291-0.65-0.652-0.65h-1.301v-2.605c0-0.015-0.008-0.027-0.01-0.043
	c2.442-0.299,4.43-2.267,5.03-4.852c1.615-0.117,2.838-0.837,3.389-2.029C20.848,7.776,20.691,6.55,19.965,5.699z M3.427,8.277
	C3.156,7.69,3.238,7.009,3.636,6.544C4.033,6.078,4.667,5.9,5.444,6.013v3.221c0,0.099,0.009,0.195,0.013,0.293
	C4.469,9.396,3.742,8.958,3.427,8.277z M15.863,4.023v5.211c0,2.877-2.041,5.209-4.558,5.209c-2.519,0-4.56-2.332-4.56-5.209V4.023
	V3.372c0-0.359,0.292-0.651,0.652-0.651h7.815c0.359,0,0.65,0.292,0.65,0.651V4.023z M19.182,8.277
	c-0.314,0.682-1.041,1.119-2.029,1.25c0.004-0.098,0.014-0.194,0.014-0.293V6.013c0.775-0.115,1.412,0.064,1.809,0.531
	C19.371,7.009,19.453,7.69,19.182,8.277z"/>
</svg>
