<?xml version="1.0" encoding="utf-8"?>
<!-- Generator: Adobe Illustrator 16.0.4, SVG Export Plug-In . SVG Version: 6.00 Build 0)  -->
<!DOCTYPE svg PUBLIC "-//W3C//DTD SVG 1.1//EN" "http://www.w3.org/Graphics/SVG/1.1/DTD/svg11.dtd">
<svg version="1.1" id="Layer_1" xmlns="http://www.w3.org/2000/svg" xmlns:xlink="http://www.w3.org/1999/xlink" x="0px" y="0px"
	 width="24.334px" height="21.333px" viewBox="0 0 24.334 21.333" enable-background="new 0 0 24.334 21.333" xml:space="preserve">
<path fill="#093858" d="M19.195,3.08c0.186,0,0.371,0.07,0.512,0.211l1.533,1.527c0.283,0.28,0.283,0.736,0,1.018L9.584,17.544
	c-0.141,0.139-0.322,0.203-0.506,0.203c-0.019,0-0.038-0.002-0.058-0.002c-0.019,0-0.037,0.002-0.056,0.002
	c-0.183,0-0.366-0.064-0.507-0.203l-5.872-5.949c-0.282-0.281-0.282-0.736,0-1.019L4.121,9.05C4.263,8.91,4.447,8.838,4.632,8.838
	c0.185,0,0.369,0.071,0.512,0.212l3.877,3.861l9.663-9.621C18.826,3.15,19.01,3.08,19.195,3.08 M7.422,18.583
	c0.413,0.408,0.958,0.631,1.543,0.631c0.019,0,0.037,0,0.056-0.001c0.02,0.001,0.039,0.001,0.058,0.001
	c0.583,0,1.13-0.223,1.538-0.627L22.275,6.875c0.414-0.41,0.645-0.961,0.645-1.548s-0.23-1.138-0.648-1.552l-1.529-1.523
	c-0.412-0.412-0.963-0.639-1.547-0.639l0,0c-0.584,0-1.133,0.227-1.547,0.639l-8.627,8.59l-2.842-2.83
	c-0.415-0.413-0.964-0.64-1.547-0.64c-0.584,0-1.133,0.228-1.547,0.64L1.552,9.537c-0.416,0.415-0.645,0.965-0.645,1.549
	c0,0.586,0.229,1.135,0.644,1.549L7.422,18.583z"/>
</svg>
