<?xml version="1.0" encoding="utf-8"?>
<!-- Generator: Adobe Illustrator 16.0.4, SVG Export Plug-In . SVG Version: 6.00 Build 0)  -->
<!DOCTYPE svg PUBLIC "-//W3C//DTD SVG 1.1//EN" "http://www.w3.org/Graphics/SVG/1.1/DTD/svg11.dtd">
<svg version="1.1" id="Layer_1" xmlns="http://www.w3.org/2000/svg" xmlns:xlink="http://www.w3.org/1999/xlink" x="0px" y="0px"
	 width="30.334px" height="30.667px" viewBox="0 0 30.334 30.667" enable-background="new 0 0 30.334 30.667" xml:space="preserve">
<g>
	<path fill="#89BDE6" d="M26.273,0.5H3.967c-1.294,0-2.347,1.053-2.347,2.347v22.307c0,1.294,1.053,2.347,2.347,2.347H15
		c0.04,0,0.065-0.008,0.094-0.012h0.521v-9.665c0-0.267-0.215-0.482-0.482-0.482h-2.42v-1.914h2.42c0.267,0,0.482-0.216,0.482-0.482
		V12.44c0-3.235,2.503-4.708,4.83-4.708c0.928,0,1.519,0.069,1.907,0.127v1.781l-1.54-0.001c-1.464,0-2.338,1.246-2.338,3.332v1.973
		c0,0.267,0.216,0.482,0.482,0.482h2.859l-0.376,1.914h-2.483c-0.267,0-0.482,0.216-0.482,0.482v9.665h0.367
		c0.029,0.004,0.051,0.012,0.091,0.012h7.341c1.295,0,2.348-1.053,2.348-2.347V2.847C28.621,1.553,27.568,0.5,26.273,0.5z
		 M26.691,25.153c0,0.229-0.187,0.418-0.418,0.418h-6.834v-7.266h2.397c0.23,0,0.429-0.163,0.473-0.39l0.565-2.878
		c0.029-0.142-0.008-0.288-0.101-0.399c-0.091-0.111-0.228-0.177-0.372-0.177h-2.963v-1.49c0-0.884,0.178-2.367,1.373-2.367
		l2.022,0.001c0.128,0,0.251-0.051,0.341-0.142s0.141-0.213,0.141-0.341V7.446c0-0.242-0.178-0.446-0.418-0.479l-0.188-0.028
		c-0.403-0.064-1.078-0.172-2.266-0.172c-3.357,0-5.793,2.386-5.793,5.673v2.021h-2.42c-0.267,0-0.482,0.216-0.482,0.482v2.879
		c0,0.267,0.215,0.482,0.482,0.482h2.42v7.266H3.967c-0.231,0-0.418-0.188-0.418-0.418V2.847c0-0.229,0.187-0.418,0.418-0.418
		h22.306c0.231,0,0.418,0.188,0.418,0.418V25.153z"/>
</g>
</svg>
