<?xml version="1.0" encoding="utf-8"?>
<!-- Generator: Adobe Illustrator 16.0.4, SVG Export Plug-In . SVG Version: 6.00 Build 0)  -->
<!DOCTYPE svg PUBLIC "-//W3C//DTD SVG 1.1//EN" "http://www.w3.org/Graphics/SVG/1.1/DTD/svg11.dtd">
<svg version="1.1" id="Layer_1" xmlns="http://www.w3.org/2000/svg" xmlns:xlink="http://www.w3.org/1999/xlink" x="0px" y="0px"
	 width="24.334px" height="21.333px" viewBox="0 0 24.334 21.333" enable-background="new 0 0 24.334 21.333" xml:space="preserve">
<path fill="#093858" d="M12.565,1.511v6.722h4.033L11.22,18.988v-6.722H7.187L12.565,1.511 M12.565,0.166
	c-0.501,0-0.97,0.281-1.203,0.744L5.984,11.665c-0.207,0.417-0.185,0.912,0.06,1.308c0.245,0.396,0.677,0.639,1.144,0.639h2.689
	v5.377c0,0.625,0.429,1.166,1.035,1.309c0.103,0.025,0.206,0.037,0.309,0.037c0.502,0,0.972-0.281,1.203-0.744l5.377-10.755
	c0.209-0.417,0.188-0.912-0.059-1.308c-0.244-0.396-0.678-0.639-1.145-0.639H13.91V1.511c0-0.625-0.428-1.166-1.038-1.309
	C12.771,0.177,12.667,0.166,12.565,0.166L12.565,0.166z"/>
</svg>
