<?xml version="1.0" encoding="utf-8"?>
<!-- Generator: Adobe Illustrator 16.0.4, SVG Export Plug-In . SVG Version: 6.00 Build 0)  -->
<!DOCTYPE svg PUBLIC "-//W3C//DTD SVG 1.1//EN" "http://www.w3.org/Graphics/SVG/1.1/DTD/svg11.dtd">
<svg version="1.1" id="Layer_1" xmlns="http://www.w3.org/2000/svg" xmlns:xlink="http://www.w3.org/1999/xlink" x="0px" y="0px"
	 width="30.334px" height="30.667px" viewBox="0 0 30.334 30.667" enable-background="new 0 0 30.334 30.667" xml:space="preserve">
<g>
	<path fill="none" stroke="#89BDE6" stroke-width="2.4113" stroke-miterlimit="10" d="M15,27.834c-7.18,0-13-5.82-13-13
		c0-7.179,5.82-13,13-13s13,5.821,13,13C28,22.014,22.18,27.834,15,27.834"/>
	<path fill="#89BDE6" stroke="#89BDE6" stroke-width="0.2893" stroke-miterlimit="10" d="M7.171,20.033c0,0,3.327-0.035,4.34-1.338
		c0,0-2.352-0.652-2.749-2.314c0,0,0.904,0.072,1.049-0.254c0,0-2.459-1.157-2.278-3.182c0,0,1.085,0.289,1.193,0
		c0,0-1.809-1.375-0.796-4.231c0,0,4.521,4.448,6.835,3.652c0,0-0.108-3.58,2.459-4.05c0,0,2.098-0.614,3.617,1.013l1.988-0.977
		l-1.266,1.699l1.266-0.107l-1.338,1.554c0,0-0.145,8.247-5.714,9.186C15.777,20.684,10.896,22.816,7.171,20.033z"/>
</g>
</svg>
