<?xml version="1.0" encoding="utf-8"?>
<!-- Generator: Adobe Illustrator 16.0.4, SVG Export Plug-In . SVG Version: 6.00 Build 0)  -->
<!DOCTYPE svg PUBLIC "-//W3C//DTD SVG 1.1//EN" "http://www.w3.org/Graphics/SVG/1.1/DTD/svg11.dtd">
<svg version="1.1" id="Layer_1" xmlns="http://www.w3.org/2000/svg" xmlns:xlink="http://www.w3.org/1999/xlink" x="0px" y="0px"
	 width="239.272px" height="79.333px" viewBox="0 0 239.272 79.333" enable-background="new 0 0 239.272 79.333"
	 xml:space="preserve">
<rect y="-0.667" fill="#89BDE6" width="239" height="80"/>
<g>
	<g>
		<path fill="#0A3859" d="M58.157,47.678c2.245-5.017,7.305-17.778,8.142-20.463c0.176-0.572,0.352-1.1,0.352-1.408
			c0-0.308-0.132-0.66-0.528-0.792c-0.44-0.132-0.88-0.132-1.32-0.132c-0.22,0-0.44-0.132-0.44-0.308c0-0.22,0.264-0.308,0.88-0.308
			c1.54,0,3.3,0.088,3.784,0.088c0.22,0,1.893-0.088,3.037-0.088c0.396,0,0.616,0.088,0.616,0.264c0,0.176-0.132,0.352-0.44,0.352
			c-0.264,0-1.144,0-1.848,0.44c-0.528,0.352-1.144,0.88-2.156,3.433c-0.44,1.056-2.333,5.544-4.312,10.122
			c-2.376,5.456-4.093,9.505-4.973,11.354c-1.056,2.244-1.276,2.816-1.672,2.816c-0.44,0-0.704-0.484-1.452-2.288l-9.505-22.928
			c-0.88-2.112-1.408-2.508-2.685-2.816c-0.616-0.132-1.276-0.132-1.496-0.132s-0.308-0.22-0.308-0.352
			c0-0.22,0.396-0.264,1.012-0.264c1.848,0,4.048,0.088,4.533,0.088c0.396,0,2.112-0.088,3.608-0.088
			c0.704,0,1.056,0.088,1.056,0.264c0,0.176-0.132,0.352-0.396,0.352c-0.44,0-1.056,0.044-1.408,0.176
			c-0.396,0.176-0.44,0.396-0.44,0.66c0,0.484,0.484,1.628,1.056,3.125L58.157,47.678z"/>
		<path fill="#0A3859" d="M78.396,35.093c0-5.809,0-6.865-0.088-8.053c-0.088-1.276-0.308-1.893-1.584-2.068
			c-0.308-0.044-0.968-0.088-1.32-0.088c-0.132,0-0.308-0.176-0.308-0.308c0-0.22,0.176-0.308,0.616-0.308
			c1.76,0,4.269,0.088,4.488,0.088c0.264,0,8.361,0.044,9.242,0c0.748-0.044,1.452-0.176,1.76-0.22
			c0.176-0.044,0.352-0.176,0.528-0.176c0.132,0,0.176,0.176,0.176,0.352c0,0.264-0.22,0.704-0.308,1.76
			c-0.044,0.352-0.132,2.024-0.22,2.464c-0.044,0.176-0.176,0.396-0.352,0.396c-0.22,0-0.308-0.176-0.308-0.484
			c0-0.264-0.044-0.88-0.22-1.32c-0.264-0.616-0.66-0.88-2.772-1.144c-0.66-0.088-5.149-0.132-5.589-0.132
			c-0.176,0-0.22,0.132-0.22,0.396v10.165c0,0.264,0,0.396,0.22,0.396c0.484,0,5.589,0,6.469-0.088
			c0.924-0.088,1.497-0.132,1.893-0.528c0.264-0.264,0.44-0.484,0.572-0.484c0.132,0,0.22,0.088,0.22,0.308
			c0,0.22-0.22,0.836-0.308,2.068c-0.088,0.748-0.176,2.156-0.176,2.42c0,0.308-0.088,0.704-0.352,0.704
			c-0.176,0-0.264-0.132-0.264-0.352c0-0.352,0-0.748-0.176-1.232c-0.132-0.528-0.484-0.968-1.98-1.145
			c-1.056-0.132-5.193-0.176-5.853-0.176c-0.22,0-0.264,0.132-0.264,0.264v3.125c0,1.276-0.044,5.633,0,6.381
			c0.088,2.509,0.792,2.992,4.621,2.992c1.012,0,2.861,0,3.873-0.396c1.012-0.44,1.54-1.101,1.76-2.597
			c0.088-0.44,0.176-0.572,0.396-0.572c0.22,0,0.264,0.308,0.264,0.572c0,0.264-0.308,2.816-0.528,3.608
			c-0.264,0.969-0.66,0.969-2.156,0.969c-2.905,0-5.149-0.089-6.733-0.133c-1.628-0.088-2.641-0.088-3.213-0.088
			c-0.088,0-0.836,0-1.672,0.044c-0.748,0.044-1.628,0.088-2.245,0.088c-0.396,0-0.616-0.088-0.616-0.308
			c0-0.133,0.088-0.309,0.308-0.309c0.353,0,0.836-0.132,1.188-0.176c0.748-0.132,0.836-0.88,1.012-1.98
			c0.22-1.54,0.22-4.488,0.22-8.097V35.093z"/>
		<path fill="#0A3859" d="M102.639,35.093c0-5.809,0-6.865-0.088-8.053c-0.088-1.276-0.308-1.893-1.584-2.068
			c-0.308-0.044-0.968-0.088-1.32-0.088c-0.132,0-0.308-0.176-0.308-0.308c0-0.22,0.176-0.308,0.616-0.308
			c1.76,0,4.356,0.088,4.577,0.088c0.396,0,3.652-0.088,4.841-0.088c2.464,0,5.192,0.22,7.217,1.628
			c0.968,0.704,2.685,2.508,2.685,5.104c0,2.772-1.145,5.457-4.753,8.537c3.168,3.96,5.853,7.349,8.097,9.681
			c2.068,2.113,3.345,2.465,4.312,2.597c0.749,0.132,1.145,0.132,1.364,0.132c0.221,0,0.352,0.176,0.352,0.309
			c0,0.22-0.219,0.308-0.924,0.308h-2.42c-2.201,0-3.168-0.22-4.137-0.748c-1.672-0.88-3.081-2.685-5.281-5.501
			c-1.628-2.023-3.345-4.444-4.181-5.457c-0.176-0.176-0.264-0.22-0.528-0.22l-4.929-0.088c-0.176,0-0.264,0.088-0.264,0.308v0.88
			c0,3.608,0,6.513,0.176,8.053c0.132,1.101,0.352,1.805,1.541,1.98c0.528,0.088,1.364,0.176,1.716,0.176
			c0.264,0,0.308,0.176,0.308,0.309c0,0.176-0.176,0.308-0.616,0.308c-2.112,0-4.577-0.132-4.753-0.132
			c-0.044,0-2.64,0.132-3.829,0.132c-0.396,0-0.616-0.088-0.616-0.308c0-0.133,0.088-0.309,0.308-0.309
			c0.352,0,0.836-0.088,1.188-0.176c0.748-0.176,0.836-0.88,1.012-1.98c0.22-1.54,0.22-4.488,0.22-8.097V35.093z M105.984,38.261
			c0,0.22,0.088,0.352,0.264,0.484c0.572,0.308,2.552,0.572,4.269,0.572c0.924,0,1.98-0.044,2.904-0.66
			c1.32-0.88,2.333-2.86,2.333-5.721c0-4.665-2.553-7.349-6.689-7.349c-1.145,0-2.376,0.132-2.772,0.22
			c-0.176,0.088-0.308,0.22-0.308,0.44V38.261z"/>
		<path fill="#0A3859" d="M135.728,41.694c0,3.608,0,6.557,0.177,8.097c0.131,1.101,0.264,1.805,1.408,1.98
			c0.572,0.088,1.408,0.176,1.76,0.176c0.221,0,0.309,0.176,0.309,0.309c0,0.176-0.177,0.308-0.617,0.308
			c-2.156,0-4.664-0.132-4.84-0.132c-0.221,0-2.641,0.132-3.829,0.132c-0.396,0-0.616-0.088-0.616-0.308
			c0-0.133,0.088-0.309,0.309-0.309c0.352,0,0.836-0.088,1.188-0.176c0.748-0.176,0.881-0.88,1.013-1.98
			c0.176-1.54,0.22-4.488,0.22-8.097v-6.601c0-5.809,0-6.865-0.088-8.053c-0.088-1.276-0.396-1.848-1.232-2.024
			c-0.439-0.088-0.924-0.132-1.188-0.132c-0.176,0-0.309-0.176-0.309-0.308c0-0.22,0.176-0.308,0.616-0.308
			c1.276,0,3.696,0.088,3.917,0.088c0.176,0,2.684-0.088,3.872-0.088c0.44,0,0.616,0.088,0.616,0.308
			c0,0.132-0.176,0.308-0.309,0.308c-0.264,0-0.527,0-0.968,0.088c-1.056,0.22-1.276,0.748-1.364,2.068
			c-0.044,1.188-0.044,2.244-0.044,8.053V41.694z"/>
		<path fill="#0A3859" d="M157.771,41.694c0,3.608,0,6.557,0.177,8.097c0.132,1.101,0.308,1.805,1.496,1.98
			c0.528,0.088,1.408,0.176,1.761,0.176c0.264,0,0.308,0.176,0.308,0.309c0,0.176-0.177,0.308-0.616,0.308
			c-2.112,0-4.576-0.132-4.797-0.132c-0.176,0-2.859,0.132-4.004,0.132c-0.44,0-0.617-0.088-0.617-0.308
			c0-0.133,0.089-0.264,0.309-0.264c0.352,0,0.793-0.089,1.145-0.177c0.792-0.176,1.012-0.924,1.145-2.024
			c0.176-1.54,0.176-4.488,0.176-8.097v-15.71l-5.59,0.088c-2.42,0.044-3.344,0.308-3.916,1.188
			c-0.439,0.66-0.484,0.924-0.615,1.188c-0.089,0.308-0.221,0.352-0.396,0.352c-0.088,0-0.264-0.088-0.264-0.308
			c0-0.396,0.748-3.741,0.836-4.049c0.043-0.22,0.264-0.704,0.396-0.704c0.265,0,0.66,0.308,1.716,0.44
			c1.101,0.132,2.598,0.176,3.037,0.176h14.609c1.277,0,2.156-0.088,2.773-0.176c0.572-0.088,0.924-0.176,1.1-0.176
			s0.176,0.22,0.176,0.44c0,1.145-0.132,3.829-0.132,4.269c0,0.308-0.176,0.484-0.353,0.484c-0.176,0-0.264-0.132-0.307-0.66
			l-0.045-0.396c-0.132-1.144-0.968-1.98-4.664-2.068l-4.842-0.088V41.694z"/>
		<path fill="#0A3859" d="M181.443,42.837c0-2.024-0.265-2.772-0.836-3.828c-0.309-0.572-5.545-8.889-6.865-10.87
			c-0.925-1.408-1.849-2.244-2.553-2.729c-0.572-0.352-1.32-0.528-1.629-0.528c-0.219,0-0.396-0.176-0.396-0.352
			c0-0.176,0.132-0.264,0.483-0.264c0.748,0,3.653,0.088,3.829,0.088c0.265,0,1.849-0.088,3.345-0.088
			c0.439,0,0.527,0.088,0.527,0.264c0,0.132-0.264,0.264-0.615,0.396c-0.309,0.132-0.484,0.308-0.484,0.616
			c0,0.528,0.264,0.968,0.528,1.452l7.041,11.662c0.792-1.584,5.633-9.593,6.337-10.826c0.484-0.836,0.66-1.452,0.66-1.936
			c0-0.528-0.176-0.836-0.616-0.968c-0.353-0.088-0.572-0.264-0.572-0.44c0-0.132,0.22-0.22,0.616-0.22
			c1.012,0,2.377,0.088,2.684,0.088c0.265,0,3.037-0.088,3.785-0.088c0.264,0,0.484,0.088,0.484,0.22
			c0,0.176-0.176,0.396-0.484,0.396c-0.439,0-1.188,0.132-1.805,0.484c-0.748,0.44-1.1,0.836-1.936,1.848
			c-1.276,1.497-6.732,10.298-7.525,11.882c-0.66,1.32-0.484,2.508-0.484,3.74v3.213c0,0.616,0,2.2,0.133,3.74
			c0.088,1.101,0.352,1.805,1.496,1.98c0.527,0.088,1.408,0.176,1.76,0.176c0.221,0,0.309,0.176,0.309,0.309
			c0,0.176-0.221,0.308-0.616,0.308c-2.157,0-4.665-0.132-4.885-0.132c-0.177,0-2.641,0.132-3.784,0.132
			c-0.44,0-0.617-0.088-0.617-0.308c0-0.133,0.088-0.309,0.309-0.309c0.352,0,0.792-0.088,1.145-0.176
			c0.792-0.176,1.056-0.88,1.145-1.98c0.088-1.54,0.088-3.124,0.088-3.74V42.837z"/>
	</g>
	<g>
		<path fill="#131313" d="M83.564,59.912c0.17,0,0.3,0.021,0.3,0.1c0,0.121-0.189,0.141-0.35,0.17
			c-0.27,0.041-2.039,0.28-2.379,0.371c-0.189,0.049-0.359,0.149-0.41,0.149c-0.06,0-0.07-0.06-0.05-0.149l0.15-0.561
			c0.02-0.07,0.06-0.08,0.22-0.08H83.564z"/>
		<path fill="#131313" d="M87.434,55.734c0.12-0.33,0.16-0.39,0.22-0.39s0.1,0.05,0.22,0.36c0.15,0.379,1.719,4.508,2.329,6.026
			c0.36,0.89,0.649,1.05,0.859,1.109c0.15,0.05,0.3,0.06,0.4,0.06c0.06,0,0.1,0.01,0.1,0.061c0,0.06-0.09,0.08-0.2,0.08
			c-0.15,0-0.879,0-1.569-0.021c-0.19-0.01-0.3-0.01-0.3-0.069c0-0.041,0.03-0.061,0.07-0.07c0.06-0.02,0.12-0.109,0.06-0.27
			l-0.93-2.459c-0.02-0.04-0.04-0.061-0.09-0.061h-2.149c-0.05,0-0.08,0.031-0.1,0.08l-0.6,1.77c-0.09,0.25-0.14,0.49-0.14,0.67
			c0,0.199,0.209,0.289,0.379,0.289h0.1c0.07,0,0.1,0.021,0.1,0.061c0,0.06-0.06,0.08-0.15,0.08c-0.24,0-0.67-0.03-0.78-0.03
			s-0.66,0.03-1.129,0.03c-0.13,0-0.19-0.021-0.19-0.08c0-0.04,0.04-0.061,0.09-0.061c0.07,0,0.209-0.01,0.29-0.02
			c0.46-0.061,0.66-0.439,0.84-0.939L87.434,55.734z M88.474,59.732c0.05,0,0.05-0.029,0.04-0.07l-0.95-2.698
			c-0.05-0.149-0.1-0.149-0.15,0l-0.879,2.698c-0.02,0.051,0,0.07,0.03,0.07H88.474z"/>
		<path fill="#131313" d="M92.115,62.92c-0.12-0.06-0.13-0.09-0.13-0.319c0-0.42,0.04-0.76,0.05-0.9c0-0.09,0.02-0.14,0.07-0.14
			c0.05,0,0.08,0.03,0.08,0.101c0,0.069,0,0.189,0.03,0.309c0.14,0.62,0.799,0.84,1.389,0.84c0.87,0,1.319-0.489,1.319-1.129
			c0-0.609-0.33-0.9-1.109-1.479l-0.4-0.3c-0.95-0.709-1.259-1.229-1.259-1.818c0-1,0.79-1.6,1.949-1.6c0.35,0,0.7,0.05,0.91,0.1
			c0.17,0.04,0.24,0.04,0.31,0.04c0.07,0,0.09,0.011,0.09,0.06c0,0.041-0.04,0.32-0.04,0.9c0,0.13-0.01,0.189-0.07,0.189
			c-0.06,0-0.07-0.039-0.08-0.109c-0.01-0.1-0.08-0.33-0.13-0.42c-0.06-0.1-0.35-0.42-1.14-0.42c-0.64,0-1.169,0.32-1.169,0.92
			c0,0.539,0.27,0.85,1.14,1.438l0.25,0.17c1.069,0.729,1.439,1.319,1.439,2.05c0,0.499-0.19,1.039-0.819,1.449
			c-0.37,0.239-0.92,0.299-1.399,0.299C92.985,63.15,92.475,63.09,92.115,62.92z"/>
		<path fill="#131313" d="M102.684,60.452c0-0.54-0.1-0.76-0.229-1.05c-0.07-0.16-1.409-2.358-1.759-2.878
			c-0.25-0.37-0.5-0.62-0.68-0.739c-0.15-0.101-0.34-0.16-0.43-0.16c-0.05,0-0.1-0.02-0.1-0.07c0-0.04,0.04-0.07,0.13-0.07
			c0.189,0,0.939,0.03,0.989,0.03c0.07,0,0.45-0.03,0.839-0.03c0.11,0,0.13,0.03,0.13,0.07s-0.06,0.051-0.15,0.09
			c-0.08,0.04-0.13,0.1-0.13,0.18c0,0.121,0.05,0.24,0.13,0.391c0.16,0.289,1.659,2.868,1.839,3.158
			c0.19-0.42,1.459-2.609,1.659-2.938c0.13-0.21,0.17-0.38,0.17-0.51c0-0.14-0.04-0.25-0.16-0.28c-0.09-0.029-0.15-0.05-0.15-0.1
			c0-0.04,0.06-0.061,0.16-0.061c0.26,0,0.58,0.03,0.66,0.03c0.06,0,0.78-0.03,0.97-0.03c0.07,0,0.13,0.021,0.13,0.061
			c0,0.05-0.05,0.08-0.13,0.08c-0.11,0-0.3,0.039-0.46,0.14c-0.2,0.12-0.31,0.239-0.53,0.51c-0.33,0.399-1.729,2.749-1.909,3.179
			c-0.15,0.359-0.15,0.67-0.15,0.999v0.859c0,0.16,0,0.579,0.03,0.999c0.02,0.291,0.11,0.51,0.41,0.551
			c0.14,0.02,0.36,0.039,0.45,0.039c0.06,0,0.08,0.03,0.08,0.061c0,0.05-0.05,0.08-0.16,0.08c-0.55,0-1.179-0.03-1.229-0.03
			c-0.05,0-0.68,0.03-0.979,0.03c-0.11,0-0.16-0.021-0.16-0.08c0-0.03,0.02-0.061,0.08-0.061c0.09,0,0.21-0.02,0.3-0.039
			c0.2-0.041,0.29-0.26,0.31-0.551c0.03-0.42,0.03-0.839,0.03-0.999V60.452z"/>
		<path fill="#131313" d="M109.973,56.494c1.979,0,3.479,1.209,3.479,3.188c0,1.899-1.41,3.468-3.528,3.468
			c-2.409,0-3.438-1.809-3.438-3.338C106.485,58.443,107.544,56.494,109.973,56.494z M110.173,62.8c0.79,0,2.378-0.42,2.378-2.879
			c0-2.038-1.239-3.107-2.628-3.107c-1.469,0-2.529,0.92-2.529,2.768C107.395,61.561,108.584,62.8,110.173,62.8z"/>
		<path fill="#131313" d="M115.115,59.072c0-1.318,0-1.559-0.02-1.828s-0.07-0.43-0.36-0.471c-0.07-0.01-0.22-0.02-0.3-0.02
			c-0.03,0-0.07-0.039-0.07-0.07c0-0.049,0.04-0.069,0.14-0.069c0.4,0,0.93,0.021,1.009,0.021c0.08,0,0.63-0.021,0.89-0.021
			c0.1,0,0.15,0.021,0.15,0.069c0,0.031-0.04,0.07-0.08,0.07c-0.06,0-0.11,0-0.22,0.02c-0.23,0.041-0.28,0.19-0.3,0.471
			c-0.02,0.27-0.02,0.51-0.02,1.828v1.189c0,1.23,0.27,1.74,0.649,2.08c0.43,0.389,0.81,0.459,1.31,0.459
			c0.54,0,1.06-0.24,1.359-0.6c0.41-0.49,0.5-1.189,0.5-2.059v-1.07c0-1.318-0.01-1.559-0.02-1.828c-0.01-0.27-0.06-0.43-0.35-0.471
			c-0.07-0.01-0.22-0.02-0.3-0.02c-0.04,0-0.07-0.039-0.07-0.07c0-0.049,0.04-0.069,0.14-0.069c0.39,0,0.899,0.021,0.949,0.021
			c0.06,0,0.48-0.021,0.74-0.021c0.1,0,0.14,0.021,0.14,0.069c0,0.031-0.03,0.07-0.07,0.07c-0.06,0-0.11,0-0.22,0.02
			c-0.24,0.051-0.29,0.19-0.31,0.471c-0.02,0.27-0.01,0.51-0.01,1.828v0.91c0,0.92-0.12,1.949-0.819,2.549
			c-0.64,0.549-1.319,0.619-1.839,0.619c-0.29,0-1.209-0.02-1.829-0.6c-0.43-0.399-0.77-0.989-0.77-2.229V59.072z"/>
		<path fill="#131313" d="M125.725,62.91c-0.14-0.069-0.15-0.109-0.15-0.379c0-0.5,0.041-0.9,0.051-1.06
			c0.01-0.11,0.029-0.16,0.08-0.16c0.06,0,0.07,0.03,0.07,0.11c0,0.09,0,0.229,0.029,0.369c0.15,0.74,0.81,1.02,1.479,1.02
			c0.96,0,1.429-0.689,1.429-1.329c0-0.689-0.289-1.089-1.148-1.799l-0.45-0.37c-1.06-0.869-1.3-1.488-1.3-2.168
			c0-1.07,0.8-1.8,2.069-1.8c0.39,0,0.68,0.04,0.929,0.101c0.19,0.039,0.271,0.049,0.351,0.049c0.079,0,0.1,0.021,0.1,0.07
			c0,0.051-0.04,0.381-0.04,1.06c0,0.16-0.02,0.229-0.07,0.229c-0.06,0-0.069-0.049-0.08-0.129c-0.01-0.12-0.069-0.391-0.129-0.5
			c-0.061-0.109-0.33-0.529-1.25-0.529c-0.689,0-1.229,0.43-1.229,1.158c0,0.57,0.26,0.93,1.219,1.68l0.279,0.22
			c1.18,0.93,1.46,1.55,1.46,2.349c0,0.41-0.16,1.17-0.85,1.659c-0.43,0.3-0.97,0.42-1.509,0.42
			C126.594,63.18,126.135,63.111,125.725,62.91z"/>
		<path fill="#131313" d="M131.835,59.072c0-1.318,0-1.559-0.021-1.828c-0.02-0.29-0.07-0.43-0.359-0.471
			c-0.07-0.01-0.22-0.02-0.3-0.02c-0.03,0-0.069-0.039-0.069-0.07c0-0.049,0.039-0.069,0.139-0.069c0.4,0,0.971,0.021,1.02,0.021
			c0.061,0,1.899,0.01,2.1,0c0.17-0.011,0.33-0.041,0.399-0.051c0.04-0.01,0.08-0.039,0.12-0.039c0.029,0,0.04,0.039,0.04,0.079
			c0,0.06-0.05,0.16-0.07,0.399c-0.01,0.08-0.03,0.461-0.05,0.561c-0.01,0.039-0.04,0.09-0.08,0.09c-0.05,0-0.07-0.04-0.07-0.109
			c0-0.061-0.01-0.201-0.049-0.301c-0.061-0.14-0.15-0.199-0.631-0.26c-0.149-0.02-1.169-0.029-1.27-0.029
			c-0.039,0-0.049,0.029-0.049,0.09v2.309c0,0.06,0,0.09,0.049,0.09c0.111,0,1.27,0,1.47-0.02c0.21-0.021,0.34-0.031,0.431-0.121
			c0.059-0.06,0.1-0.109,0.129-0.109c0.03,0,0.051,0.02,0.051,0.07c0,0.049-0.051,0.189-0.07,0.469c-0.02,0.17-0.04,0.49-0.04,0.551
			c0,0.069-0.021,0.159-0.08,0.159c-0.04,0-0.06-0.03-0.06-0.079c0-0.08,0-0.17-0.041-0.28c-0.029-0.12-0.109-0.22-0.449-0.261
			c-0.24-0.029-1.18-0.039-1.329-0.039c-0.05,0-0.06,0.029-0.06,0.06v0.71c0,0.289-0.01,1.279,0,1.449
			c0.02,0.569,0.18,0.68,1.049,0.68c0.23,0,0.65,0,0.88-0.09c0.229-0.1,0.35-0.25,0.399-0.59c0.02-0.1,0.04-0.131,0.09-0.131
			c0.051,0,0.061,0.07,0.061,0.131c0,0.06-0.07,0.64-0.12,0.819c-0.06,0.22-0.149,0.22-0.489,0.22c-0.66,0-1.17-0.02-1.529-0.029
			c-0.37-0.021-0.6-0.021-0.73-0.021c-0.02,0-0.189,0-0.379,0.01c-0.17,0.011-0.37,0.021-0.51,0.021c-0.09,0-0.141-0.021-0.141-0.07
			c0-0.029,0.021-0.07,0.07-0.07c0.08,0,0.189-0.029,0.27-0.039c0.17-0.03,0.189-0.2,0.23-0.45c0.05-0.351,0.05-1.02,0.05-1.839
			V59.072z"/>
		<path fill="#131313" d="M137.345,59.072c0-1.318,0-1.559-0.021-1.828c-0.02-0.29-0.07-0.43-0.359-0.471
			c-0.07-0.01-0.22-0.02-0.3-0.02c-0.03,0-0.069-0.039-0.069-0.07c0-0.049,0.039-0.069,0.139-0.069c0.4,0,0.971,0.021,1.02,0.021
			c0.061,0,1.899,0.01,2.1,0c0.17-0.011,0.33-0.041,0.399-0.051c0.04-0.01,0.08-0.039,0.12-0.039c0.029,0,0.04,0.039,0.04,0.079
			c0,0.06-0.05,0.16-0.07,0.399c-0.01,0.08-0.03,0.461-0.05,0.561c-0.01,0.039-0.04,0.09-0.08,0.09c-0.05,0-0.07-0.04-0.07-0.109
			c0-0.061-0.01-0.201-0.049-0.301c-0.061-0.14-0.15-0.199-0.631-0.26c-0.149-0.02-1.169-0.029-1.27-0.029
			c-0.039,0-0.049,0.029-0.049,0.09v2.309c0,0.06,0,0.09,0.049,0.09c0.111,0,1.27,0,1.47-0.02c0.21-0.021,0.34-0.031,0.431-0.121
			c0.059-0.06,0.1-0.109,0.129-0.109c0.03,0,0.051,0.02,0.051,0.07c0,0.049-0.051,0.189-0.07,0.469c-0.02,0.17-0.04,0.49-0.04,0.551
			c0,0.069-0.021,0.159-0.08,0.159c-0.04,0-0.06-0.03-0.06-0.079c0-0.08,0-0.17-0.041-0.28c-0.029-0.12-0.109-0.22-0.449-0.261
			c-0.24-0.029-1.18-0.039-1.329-0.039c-0.05,0-0.06,0.029-0.06,0.06v0.71c0,0.289-0.01,1.279,0,1.449
			c0.02,0.569,0.18,0.68,1.049,0.68c0.23,0,0.65,0,0.88-0.09c0.229-0.1,0.35-0.25,0.399-0.59c0.02-0.1,0.04-0.131,0.09-0.131
			c0.051,0,0.061,0.07,0.061,0.131c0,0.06-0.07,0.64-0.12,0.819c-0.06,0.22-0.149,0.22-0.489,0.22c-0.66,0-1.17-0.02-1.529-0.029
			c-0.37-0.021-0.6-0.021-0.73-0.021c-0.02,0-0.189,0-0.379,0.01c-0.17,0.011-0.37,0.021-0.51,0.021c-0.09,0-0.141-0.021-0.141-0.07
			c0-0.029,0.021-0.07,0.07-0.07c0.08,0,0.189-0.029,0.27-0.039c0.17-0.03,0.189-0.2,0.23-0.45c0.05-0.351,0.05-1.02,0.05-1.839
			V59.072z"/>
		<path fill="#131313" d="M147.174,60.142c0,0.959,0,1.748,0.05,2.168c0.03,0.291,0.09,0.51,0.39,0.551
			c0.141,0.02,0.359,0.039,0.45,0.039c0.06,0,0.079,0.03,0.079,0.061c0,0.05-0.049,0.08-0.159,0.08c-0.55,0-1.18-0.03-1.229-0.03
			s-0.68,0.03-0.979,0.03c-0.11,0-0.159-0.021-0.159-0.08c0-0.03,0.02-0.061,0.079-0.061c0.091,0,0.21-0.02,0.3-0.039
			c0.2-0.041,0.25-0.26,0.29-0.551c0.05-0.42,0.05-1.209,0.05-2.168v-1.76c0-1.559,0-1.838-0.02-2.158
			c-0.02-0.34-0.12-0.51-0.34-0.561c-0.11-0.029-0.24-0.039-0.311-0.039c-0.039,0-0.08-0.02-0.08-0.061c0-0.06,0.051-0.08,0.16-0.08
			c0.33,0,0.96,0.03,1.01,0.03s0.68-0.03,0.979-0.03c0.11,0,0.16,0.021,0.16,0.08c0,0.041-0.04,0.061-0.08,0.061
			c-0.069,0-0.13,0.01-0.25,0.029c-0.271,0.051-0.35,0.221-0.37,0.57c-0.02,0.32-0.02,0.6-0.02,2.158V60.142z"/>
		<path fill="#131313" d="M152.424,60.572c0,0.819,0,1.488,0.039,1.839c0.03,0.25,0.07,0.409,0.34,0.45
			c0.12,0.02,0.32,0.039,0.4,0.039c0.06,0,0.07,0.041,0.07,0.07c0,0.04-0.041,0.07-0.141,0.07c-0.48,0-1.039-0.03-1.09-0.03
			c-0.039,0-0.649,0.03-0.909,0.03c-0.101,0-0.14-0.021-0.14-0.07c0-0.029,0.02-0.061,0.07-0.061c0.08,0,0.18-0.02,0.26-0.039
			c0.18-0.04,0.229-0.21,0.26-0.46c0.039-0.351,0.039-1.02,0.039-1.839v-3.568l-1.269,0.02c-0.55,0.011-0.76,0.07-0.89,0.271
			c-0.1,0.149-0.109,0.21-0.141,0.271c-0.02,0.069-0.049,0.079-0.09,0.079c-0.02,0-0.06-0.021-0.06-0.069
			c0-0.09,0.17-0.85,0.19-0.92c0.01-0.05,0.06-0.16,0.09-0.16c0.06,0,0.149,0.07,0.39,0.1c0.249,0.03,0.589,0.041,0.689,0.041h3.318
			c0.29,0,0.489-0.021,0.63-0.041c0.129-0.02,0.209-0.039,0.25-0.039c0.039,0,0.039,0.05,0.039,0.1c0,0.26-0.029,0.869-0.029,0.969
			c0,0.07-0.04,0.111-0.08,0.111s-0.061-0.031-0.07-0.15l-0.01-0.09c-0.029-0.26-0.22-0.45-1.06-0.471l-1.099-0.02V60.572z"/>
		<path fill="#131313" d="M158.033,59.912c0.17,0,0.3,0.021,0.3,0.1c0,0.121-0.19,0.141-0.35,0.17
			c-0.271,0.041-2.039,0.28-2.379,0.371c-0.189,0.049-0.359,0.149-0.409,0.149c-0.061,0-0.07-0.06-0.051-0.149l0.15-0.561
			c0.02-0.07,0.061-0.08,0.22-0.08H158.033z"/>
	</g>
</g>
</svg>
